<?xml version="1.0" encoding="utf-8"?>
<!-- Generator: Adobe Illustrator 26.0.0, SVG Export Plug-In . SVG Version: 6.00 Build 0)  -->
<svg version="1.1" id="Capa_1" xmlns="http://www.w3.org/2000/svg" xmlns:xlink="http://www.w3.org/1999/xlink" x="0px" y="0px"
	 viewBox="0 0 35 50" style="enable-background:new 0 0 35 50;" xml:space="preserve">
<style type="text/css">
	.st0{fill:#AF9B62;}
	.st1{fill:#A89563;}
	.st2{fill:#9E8B61;}
	.st3{fill:#A69571;}
	.st4{fill:#BCBAB3;}
	.st5{fill:#B0AEA8;}
</style>
<path class="st0" d="M31.78,46.43c-2.88,1.3-8.1,3.2-14.83,3.1c-6.22-0.08-11.07-1.83-13.88-3.1c-1.52-5.75-3.04-13.9-2.82-23.69
	c0.18-8.02,1.46-14.8,2.82-19.92c3.43-1.14,8.57-2.41,14.89-2.34c5.79,0.07,10.54,1.24,13.81,2.34c1.5,4.98,3.09,12.09,3.21,20.72
	C35.13,33.23,33.38,41.14,31.78,46.43z"/>
<path class="st1" d="M29.64,47.31h-6.7c1.11-15.2,1.71-20.99,2.03-22.08c0.04-0.14,0.31-0.99,0.4-2.17c0,0,0.06-0.81,0-1.66
	c-0.11-1.43-1.05-9-2.43-19.32c2.23,0,4.46,0,6.7,0c1.2,6.31,2.16,14.14,2.12,23.15C31.72,33.77,30.79,41.23,29.64,47.31z"/>
<path class="st2" d="M3.68,46.63H8.7c-1.02-5.98-1.82-13.16-1.85-21.27C6.81,16.77,7.63,9.2,8.7,2.96c-1.67,0-3.35,0-5.02,0
	C1.08,17.9,0.63,23.58,0.96,25.36c0.06,0.31,0.48,2.34,0.54,5.17c0.02,0.75,0,1.28,0,1.43C1.47,33.69,1.89,37.58,3.68,46.63z"/>
<path class="st3" d="M19.75,47.88h-5.23c0.03-17.09,0.27-25.33,0.53-29.58c0.02-0.41,0.09-1.48,0.13-2.96
	c0.15-5.6-0.26-10.15-0.66-13.21c1.74,0,3.48,0,5.23,0V47.88z"/>
<path class="st2" d="M10.77,47.25h5.02c-0.83-6.13-1.49-13.58-1.52-22.05c-0.03-8.93,0.66-16.75,1.52-23.12c-1.67,0-3.35,0-5.02,0
	C9.37,13.14,9.21,17.66,9.5,19.28c0.03,0.16,0.17,0.9,0.2,1.9c0.06,2.14-0.43,3.72-0.52,4.03C8.76,26.71,8.8,31.76,10.77,47.25z"/>
<path class="st2" d="M31.78,46.53h-4.04c1.15-5.87,2.1-13.17,2.12-21.57c0.02-8.63-0.95-16.12-2.12-22.1c1.35,0,2.69,0,4.04,0
	c1.48,5.44,2.95,13.03,2.91,22.17C34.66,33.85,33.23,41.21,31.78,46.53z"/>
<path class="st4" d="M31.78,46.43c-2.76,1.25-7.8,3.1-14.34,3.11c-6.55,0-11.6-1.85-14.37-3.11c-0.18-0.73-0.36-1.46-0.55-2.18
	c3.05,1.25,8.15,2.9,14.62,2.95c6.81,0.05,12.15-1.68,15.26-2.96C32.2,44.96,31.99,45.69,31.78,46.43z"/>
<path class="st4" d="M31.78,2.82c-3.28-1.1-8.23-2.34-14.34-2.34c-6.12,0-11.08,1.24-14.37,2.34C2.9,3.5,2.73,4.18,2.56,4.86
	C5.98,3.73,11,2.49,17.15,2.41c6.42-0.08,11.66,1.15,15.17,2.26C32.14,4.06,31.96,3.44,31.78,2.82z"/>
<path class="st5" d="M32.99,41.27c-3.46,1.36-9.05,3.04-16.06,2.96c-6.47-0.07-11.67-1.61-15.01-2.9c-0.08-0.74-0.15-1.48-0.23-2.22
	c3.58,1.27,8.94,2.7,15.54,2.74c6.95,0.04,12.56-1.47,16.23-2.78C33.29,39.8,33.14,40.53,32.99,41.27z"/>
<path class="st5" d="M32.99,6.75c-3.46-1.16-9.05-2.6-16.06-2.54C10.45,4.27,5.26,5.59,1.91,6.7C1.84,7.34,1.76,7.97,1.68,8.6
	c3.58-1.09,8.94-2.32,15.54-2.35c6.95-0.04,12.56,1.26,16.23,2.39C33.29,8.01,33.14,7.38,32.99,6.75z"/>
</svg>
