<?xml version="1.0" encoding="utf-8"?>
<!-- Generator: Adobe Illustrator 26.0.0, SVG Export Plug-In . SVG Version: 6.00 Build 0)  -->
<svg version="1.1" id="Capa_1" xmlns="http://www.w3.org/2000/svg" xmlns:xlink="http://www.w3.org/1999/xlink" x="0px" y="0px"
	 viewBox="0 0 55 50" style="enable-background:new 0 0 55 50;" xml:space="preserve">
<style type="text/css">
	.st0{fill:#EDDAC3;}
	.st1{fill:#DBC8B4;}
	.st2{fill:#CEBAA7;}
	.st3{fill:#CCB6A2;}
</style>
<rect x="0.96" class="st0" width="53.3" height="50"/>
<path class="st1" d="M54.27,2.73H0.96C0.85,2.37,0.74,1.89,0.75,1.31C0.76,0.79,0.86,0.34,0.96,0c17.77,0,35.54,0,53.3,0
	c0.09,0.37,0.16,0.81,0.16,1.31C54.43,1.86,54.36,2.34,54.27,2.73z"/>
<path class="st1" d="M54.27,25.96H0.96c0.29-2.76,0.58-5.52,0.88-8.28c17.2,0,34.39,0,51.59,0C53.71,20.44,53.99,23.2,54.27,25.96z"
	/>
<path class="st1" d="M54.27,50H0.96c0.31-2.76,0.62-5.52,0.93-8.28c17.25,0,34.5,0,51.75,0C53.85,44.48,54.06,47.24,54.27,50z"/>
<path class="st2" d="M54.28,50H0.73c-0.09-0.33-0.16-0.76-0.16-1.26c0-0.48,0.08-0.9,0.16-1.23c17.85,0,35.7,0,53.55,0
	c0.1,0.34,0.19,0.78,0.18,1.31C54.46,49.3,54.37,49.69,54.28,50z"/>
<path class="st3" d="M28.41,44.5c-0.19,0.08-0.53,0.18-0.95,0.18c-0.38-0.01-0.69-0.1-0.88-0.18c0-6.18,0-12.36,0-18.54h1.83V44.5z"
	/>
<path class="st2" d="M54.27,25.96H0.96c-0.11-0.32-0.23-0.78-0.22-1.34c0.01-0.52,0.12-0.95,0.22-1.26c17.77,0,35.54,0,53.3,0
	c0.09,0.34,0.16,0.78,0.16,1.29C54.43,25.17,54.35,25.61,54.27,25.96z"/>
<path class="st3" d="M28.53,21.37c-0.19,0.09-0.56,0.23-1.03,0.2c-0.35-0.02-0.62-0.12-0.8-0.2c0-6.21,0-12.43,0-18.64h1.83V21.37z"
	/>
</svg>
