<?xml version="1.0" encoding="utf-8"?>
<!-- Generator: Adobe Illustrator 26.0.0, SVG Export Plug-In . SVG Version: 6.00 Build 0)  -->
<svg version="1.1" id="Capa_1" xmlns="http://www.w3.org/2000/svg" xmlns:xlink="http://www.w3.org/1999/xlink" x="0px" y="0px"
	 viewBox="0 0 40 100" style="enable-background:new 0 0 40 100;" xml:space="preserve">
<style type="text/css">
	.st0{fill:#D7DEE2;}
	.st1{fill:#E6ECEF;}
	.st2{opacity:0.5;fill:#E9EFF2;}
</style>
<path class="st0" d="M36.85,93.8c-3.26,1.92-9,4.63-16.39,4.7c-7.71,0.07-13.69-2.76-16.99-4.7C2.61,64.29,1.76,34.77,0.91,5.26
	c4.3-2.09,11.83-4.93,21.31-4.3c7.47,0.5,13.41,2.96,17.28,5.01C38.62,35.25,37.73,64.53,36.85,93.8z"/>
<ellipse class="st1" cx="20.23" cy="91.56" rx="15.42" ry="4.42"/>
<path class="st2" d="M35.28,82.39c-3.34,1.31-8.51,2.85-14.93,2.82c-6.46-0.03-11.65-1.64-14.99-3C4.3,56.69,3.24,31.17,2.19,5.65
	C6.2,3.79,13.2,1.29,22.04,1.84c6.95,0.44,12.49,2.62,16.09,4.43C37.18,31.65,36.23,57.02,35.28,82.39z"/>
<path class="st1" d="M38.13,7.38c0.1-1.74-9.23-4.07-17.85-4.15c-8.7-0.09-18.15,2.1-18.09,3.84c0.07,1.81,10.33,3.13,17.9,3.2
	C27.71,10.34,38.02,9.19,38.13,7.38z"/>
<path class="st2" d="M33.33,82.53c-2.91,1.25-7.41,2.71-13,2.68c-5.63-0.03-10.15-1.56-13.06-2.84C6.35,58.14,5.43,33.92,4.51,9.7
	C8,7.94,14.1,5.56,21.8,6.09c6.06,0.42,10.88,2.49,14.01,4.21C34.98,34.38,34.16,58.45,33.33,82.53z"/>
</svg>
